<svg width="650" height="635" viewBox="0 0 650 635" fill="none" xmlns="http://www.w3.org/2000/svg">
<rect width="650" height="635" rx="10" fill="white"/>
<path d="M311.229 200.362C321.257 163.797 321.257 125.206 311.229 88.6409C304.002 66.2999 287.419 48.3315 266.546 40.3455C223.167 25.2181 175.945 25.2181 132.566 40.3455C121.715 44.0887 111.957 50.4567 104.161 58.8828C96.3657 67.3088 90.7742 77.5315 87.8844 88.6409C77.741 125.191 77.741 163.813 87.8844 200.362C95.1114 222.703 111.611 240.754 132.566 248.575C175.961 263.788 223.151 263.788 266.546 248.575C277.195 244.508 286.765 238.044 294.514 229.683C302.262 221.322 307.982 211.289 311.229 200.362ZM246.334 144.856C246.334 153.535 244.866 163.584 242.044 171.504C240.108 177.357 236.707 182.618 232.164 186.785C227.621 190.952 222.087 193.888 216.089 195.313C204.655 197.458 192.89 197.458 181.456 195.313C175.306 194.263 169.592 191.456 165.002 187.232C160.411 183.007 157.14 177.545 155.584 171.504C149.839 153.707 149.839 134.554 155.584 116.757C157.496 110.913 160.881 105.661 165.413 101.505C169.944 97.3495 175.469 94.4307 181.456 93.0299C192.893 90.8066 204.652 90.8066 216.089 93.0299C228.629 95.1749 238.777 104.464 242.044 116.757C244.841 125.863 246.287 135.331 246.334 144.856ZM343.618 89.4164C338.386 107.691 335.726 126.606 335.715 145.615V309.147H408.496V144.84C408.496 136.243 409.866 126.112 412.786 118.192C414.722 112.339 418.123 107.079 422.666 102.911C427.209 98.7439 432.743 95.808 438.741 94.3829C450.159 92.2493 461.874 92.2493 473.292 94.3829C485.832 96.5279 495.979 105.817 499.246 118.192C504.992 135.989 504.992 155.143 499.246 172.939C497.354 178.685 494.061 183.87 489.666 188.026C485.27 192.183 479.91 195.18 474.067 196.749C462.633 198.894 450.868 198.894 439.434 196.749C437.289 196.056 434.451 195.28 432.306 194.521L456.792 262.32C479.826 262.32 502.167 257.931 523.732 251.496C534.577 247.74 544.327 241.368 552.121 232.944C559.915 224.52 565.511 214.304 568.414 203.2C578.46 166.665 578.46 128.096 568.414 91.5614C561.187 69.2204 544.687 51.1695 523.732 43.266C480.353 28.1386 433.131 28.1386 389.752 43.266C367.411 49.0245 350.845 67.0754 343.618 89.4164Z" fill="#B80018"/>
<path d="M294.952 496.842C304.98 460.276 304.98 421.686 294.952 385.12C287.725 362.779 271.142 344.811 250.27 336.825C206.891 321.697 159.669 321.697 116.29 336.825C105.438 340.568 95.6801 346.936 87.8844 355.362C80.0888 363.788 74.4973 374.011 71.6076 385.12C61.4641 421.67 61.4641 460.292 71.6076 496.842C78.8346 519.183 95.3346 537.234 116.29 545.055C159.685 560.268 206.875 560.268 250.27 545.055C260.919 540.988 270.488 534.523 278.237 526.162C285.985 517.801 291.705 507.769 294.952 496.842ZM230.057 441.336C230.057 450.015 228.589 460.063 225.767 467.983C223.831 473.836 220.43 479.097 215.887 483.264C211.344 487.432 205.811 490.368 199.813 491.793C188.378 493.938 176.614 493.938 165.179 491.793C159.03 490.742 153.315 487.936 148.725 483.711C144.134 479.487 140.864 474.025 139.307 467.983C133.562 450.187 133.562 431.033 139.307 413.236C141.219 407.393 144.604 402.14 149.136 397.985C153.667 393.829 159.192 390.91 165.179 389.509C176.617 387.286 188.375 387.286 199.813 389.509C212.353 391.654 222.5 400.944 225.767 413.236C228.564 422.342 230.01 431.81 230.057 441.336ZM327.341 385.896C322.109 404.171 319.449 423.086 319.438 442.095V605.626H392.219V441.319C392.219 432.723 393.589 422.592 396.509 414.672C398.445 408.819 401.846 403.558 406.389 399.391C410.932 395.223 416.466 392.287 422.464 390.862C433.882 388.729 445.596 388.729 457.015 390.862C469.555 393.007 479.702 402.297 482.969 414.672C488.715 432.469 488.715 451.622 482.969 469.419C481.076 475.165 477.784 480.349 473.389 484.506C468.993 488.662 463.633 491.66 457.79 493.228C446.356 495.373 434.591 495.373 423.157 493.228C421.012 492.535 418.174 491.76 416.029 491.001L440.515 558.799C463.549 558.799 485.89 554.41 507.455 547.975C518.299 544.219 528.05 537.847 535.844 529.423C543.638 520.999 549.234 510.783 552.137 499.68C562.183 463.145 562.183 424.576 552.137 388.041C544.91 365.7 528.41 347.649 507.455 339.745C464.076 324.618 416.854 324.618 373.475 339.745C351.134 345.504 334.568 363.555 327.341 385.896Z" fill="#B80018"/>
</svg>
