<svg width="34" height="34" viewBox="0 0 34 34" fill="none" xmlns="http://www.w3.org/2000/svg">
<path d="M19.8177 25.9533C19.6736 26.1308 19.4925 26.2311 19.2745 26.2542C19.0565 26.2773 18.8587 26.2163 18.6811 26.0712L11.9334 20.5923C11.8231 20.5028 11.7613 20.3907 11.7478 20.2561C11.7343 20.1215 11.772 19.9988 11.861 19.8882C11.95 19.7775 12.0621 19.7157 12.1972 19.7026C12.3323 19.6895 12.4545 19.7273 12.5637 19.816L19.1624 25.1739L24.5203 18.5752C24.6098 18.465 24.7219 18.4031 24.8565 18.3896C24.9911 18.3761 25.1138 18.4139 25.2244 18.5029C25.3351 18.5919 25.397 18.7039 25.41 18.8391C25.4231 18.9742 25.3853 19.0964 25.2966 19.2056L19.8177 25.9533ZM19.2338 20.3267C19.0897 20.5042 18.9086 20.6045 18.6906 20.6276C18.4726 20.6507 18.2748 20.5897 18.0972 20.4446L11.3495 14.9657C11.2392 14.8761 11.1774 14.7641 11.1639 14.6295C11.1504 14.4948 11.1881 14.3722 11.2771 14.2615C11.3661 14.1509 11.4782 14.089 11.6133 14.0759C11.7485 14.0629 11.8706 14.1007 11.9798 14.1893L18.5785 19.5473L23.9364 12.9486C24.0259 12.8383 24.138 12.7765 24.2726 12.763C24.4072 12.7495 24.5299 12.7872 24.6405 12.8762C24.7512 12.9652 24.8131 13.0773 24.8261 13.2124C24.8392 13.3476 24.8014 13.4697 24.7128 13.5789L19.2338 20.3267Z" fill="#D9D9D9"/>
</svg>
