<svg width="28" height="28" viewBox="0 0 28 28" fill="none" xmlns="http://www.w3.org/2000/svg">
<circle cx="14" cy="14" r="13.5" stroke="#D9D9D9"/>
<g clip-path="url(#clip0_23_19)">
<path d="M11.9081 8.98034C11.9375 8.7168 12.0703 8.4757 12.2773 8.31005C12.4844 8.14441 12.7488 8.06778 13.0123 8.09703L19.3373 8.79986C19.6009 8.82919 19.842 8.96198 20.0076 9.16904C20.1733 9.3761 20.2499 9.64047 20.2206 9.90402L19.5178 16.229C19.4843 16.4891 19.35 16.7256 19.1439 16.8876C18.9377 17.0496 18.6762 17.1242 18.4156 17.0952C18.155 17.0663 17.9161 16.9361 17.7506 16.7328C17.585 16.5295 17.5059 16.2693 17.5303 16.0082L17.8994 12.1362L10.4811 18.0707C10.274 18.2364 10.0096 18.313 9.74598 18.2837C9.48239 18.2544 9.24122 18.1216 9.07555 17.9145C8.90987 17.7074 8.83325 17.443 8.86254 17.1794C8.89183 16.9158 9.02463 16.6747 9.23173 16.509L16.65 10.5744L12.7915 10.0845C12.5279 10.0552 12.2868 9.92237 12.1212 9.71531C11.9555 9.50825 11.8789 9.24388 11.9081 8.98034Z" fill="#D9D9D9"/>
</g>
<defs>
<clipPath id="clip0_23_19">
<rect width="15" height="15" fill="white" transform="translate(4 12.3703) rotate(-38.6593)"/>
</clipPath>
</defs>
</svg>
