<svg width="43" height="40" viewBox="0 0 43 40" fill="none" xmlns="http://www.w3.org/2000/svg">
<ellipse cx="21.5" cy="20" rx="21.5" ry="20" fill="#919AC0"/>
<path d="M21.443 11L24.8087 12.9245V13.9811L28.8971 16.3396V20.3396L30 20.9623V24.8491L26.6342 26.7736L25.132 25.9057L21.481 28L17.849 25.9245L16.3848 26.7736L13 24.8302V20.9623L14.0649 20.3585V16.3396L18.0582 14.0377V12.9245L21.443 11ZM24.8277 15V16.8113L21.443 18.7358L18.0772 16.8113V15.0566L14.9396 16.8491V19.8679L16.3848 19.0377L19.7696 20.9811V24.8491L18.7427 25.434L21.5 27L24.2573 25.4151L23.2494 24.8491V20.9811L26.6342 19.0377L28.0414 19.8491V16.8491L24.8277 15ZM26.1969 25.5283V23.1509L24.1432 21.9811V24.3396L26.1969 25.5283ZM29.1253 21.9811L27.0716 23.1698V25.5283L29.1253 24.3396V21.9811ZM15.9474 25.5283V23.1698L13.8747 21.9811V24.3396L15.9474 25.5283ZM18.8949 22L16.8412 23.1698V25.5283L18.8949 24.3585V22ZM26.6342 22.434L28.7069 21.2453L26.6342 20.0755L24.5805 21.2453L26.6342 22.434ZM16.3848 20.0755L14.3311 21.2453L16.3848 22.434L18.4385 21.2453L16.3848 20.0755ZM21.0056 17.5094V15.1509L18.9519 13.9811V16.3396L21.0056 17.5094ZM23.953 13.9623L21.8803 15.1509V17.5094L23.953 16.3208V13.9623ZM21.443 14.3962L23.5157 13.2075L21.443 12.0377L19.3893 13.2075L21.443 14.3962Z" fill="white"/>
</svg>
