<svg width="43" height="40" viewBox="0 0 43 40" fill="none" xmlns="http://www.w3.org/2000/svg">
<ellipse cx="21.5" cy="20" rx="21.5" ry="20" fill="#919AC0"/>
<path d="M21 9C19.6868 9 18.3864 9.25866 17.1732 9.7612C15.9599 10.2638 14.8575 11.0003 13.9289 11.9289C12.0536 13.8043 11 16.3478 11 19C11 23.42 13.87 27.17 17.84 28.5C18.34 28.58 18.5 28.27 18.5 28V26.31C15.73 26.91 15.14 24.97 15.14 24.97C14.68 23.81 14.03 23.5 14.03 23.5C13.12 22.88 14.1 22.9 14.1 22.9C15.1 22.97 15.63 23.93 15.63 23.93C16.5 25.45 17.97 25 18.54 24.76C18.63 24.11 18.89 23.67 19.17 23.42C16.95 23.17 14.62 22.31 14.62 18.5C14.62 17.39 15 16.5 15.65 15.79C15.55 15.54 15.2 14.5 15.75 13.15C15.75 13.15 16.59 12.88 18.5 14.17C19.29 13.95 20.15 13.84 21 13.84C21.85 13.84 22.71 13.95 23.5 14.17C25.41 12.88 26.25 13.15 26.25 13.15C26.8 14.5 26.45 15.54 26.35 15.79C27 16.5 27.38 17.39 27.38 18.5C27.38 22.32 25.04 23.16 22.81 23.41C23.17 23.72 23.5 24.33 23.5 25.26V28C23.5 28.27 23.66 28.59 24.17 28.5C28.14 27.16 31 23.42 31 19C31 17.6868 30.7413 16.3864 30.2388 15.1732C29.7362 13.9599 28.9997 12.8575 28.0711 11.9289C27.1425 11.0003 26.0401 10.2638 24.8268 9.7612C23.6136 9.25866 22.3132 9 21 9Z" fill="white"/>
</svg>
