<svg width="349" height="49" viewBox="0 0 349 49" fill="none" xmlns="http://www.w3.org/2000/svg">
<path d="M47.52 39.48C45.28 39.48 43.1333 39.1867 41.08 38.6C39.0267 37.9867 37.3733 37.2 36.12 36.24L38.32 31.36C39.52 32.2133 40.9333 32.92 42.56 33.48C44.2133 34.0133 45.88 34.28 47.56 34.28C48.84 34.28 49.8667 34.16 50.64 33.92C51.44 33.6533 52.0267 33.2933 52.4 32.84C52.7733 32.3867 52.96 31.8667 52.96 31.28C52.96 30.5333 52.6667 29.9467 52.08 29.52C51.4933 29.0667 50.72 28.7067 49.76 28.44C48.8 28.1467 47.7333 27.88 46.56 27.64C45.4133 27.3733 44.2533 27.0533 43.08 26.68C41.9333 26.3067 40.88 25.8267 39.92 25.24C38.96 24.6533 38.1733 23.88 37.56 22.92C36.9733 21.96 36.68 20.7333 36.68 19.24C36.68 17.64 37.1067 16.1867 37.96 14.88C38.84 13.5467 40.1467 12.4933 41.88 11.72C43.64 10.92 45.84 10.52 48.48 10.52C50.24 10.52 51.9733 10.7333 53.68 11.16C55.3867 11.56 56.8933 12.1733 58.2 13L56.2 17.92C54.8933 17.1733 53.5867 16.6267 52.28 16.28C50.9733 15.9067 49.6933 15.72 48.44 15.72C47.1867 15.72 46.16 15.8667 45.36 16.16C44.56 16.4533 43.9867 16.84 43.64 17.32C43.2933 17.7733 43.12 18.3067 43.12 18.92C43.12 19.64 43.4133 20.2267 44 20.68C44.5867 21.1067 45.36 21.4533 46.32 21.72C47.28 21.9867 48.3333 22.2533 49.48 22.52C50.6533 22.7867 51.8133 23.0933 52.96 23.44C54.1333 23.7867 55.2 24.2533 56.16 24.84C57.12 25.4267 57.8933 26.2 58.48 27.16C59.0933 28.12 59.4 29.3333 59.4 30.8C59.4 32.3733 58.96 33.8133 58.08 35.12C57.2 36.4267 55.88 37.48 54.12 38.28C52.3867 39.08 50.1867 39.48 47.52 39.48ZM72.4678 39.32C70.6811 39.32 69.0811 38.9733 67.6678 38.28C66.2811 37.5867 65.2011 36.5333 64.4278 35.12C63.6545 33.68 63.2678 31.8533 63.2678 29.64V17.48H69.5078V28.72C69.5078 30.5067 69.8811 31.8267 70.6278 32.68C71.4011 33.5067 72.4811 33.92 73.8678 33.92C74.8278 33.92 75.6811 33.72 76.4278 33.32C77.1745 32.8933 77.7611 32.2533 78.1878 31.4C78.6145 30.52 78.8278 29.4267 78.8278 28.12V17.48H85.0678V39H79.1478V33.08L80.2278 34.8C79.5078 36.2933 78.4411 37.4267 77.0278 38.2C75.6411 38.9467 74.1211 39.32 72.4678 39.32ZM103.569 39.32C101.755 39.32 100.169 38.92 98.8088 38.12C97.4488 37.32 96.3821 36.1067 95.6088 34.48C94.8621 32.8267 94.4888 30.7467 94.4888 28.24C94.4888 25.7067 94.8488 23.6267 95.5688 22C96.2888 20.3733 97.3288 19.16 98.6888 18.36C100.049 17.56 101.675 17.16 103.569 17.16C105.595 17.16 107.409 17.6267 109.009 18.56C110.635 19.4667 111.915 20.7467 112.849 22.4C113.809 24.0533 114.289 26 114.289 28.24C114.289 30.5067 113.809 32.4667 112.849 34.12C111.915 35.7733 110.635 37.0533 109.009 37.96C107.409 38.8667 105.595 39.32 103.569 39.32ZM90.8488 46.76V17.48H96.8088V21.88L96.6888 28.28L97.0888 34.64V46.76H90.8488ZM102.489 34.2C103.529 34.2 104.449 33.96 105.249 33.48C106.075 33 106.729 32.32 107.209 31.44C107.715 30.5333 107.969 29.4667 107.969 28.24C107.969 26.9867 107.715 25.92 107.209 25.04C106.729 24.16 106.075 23.48 105.249 23C104.449 22.52 103.529 22.28 102.489 22.28C101.449 22.28 100.515 22.52 99.6888 23C98.8621 23.48 98.2088 24.16 97.7288 25.04C97.2488 25.92 97.0088 26.9867 97.0088 28.24C97.0088 29.4667 97.2488 30.5333 97.7288 31.44C98.2088 32.32 98.8621 33 99.6888 33.48C100.515 33.96 101.449 34.2 102.489 34.2ZM129.146 39.32C126.693 39.32 124.533 38.84 122.666 37.88C120.826 36.92 119.399 35.6133 118.386 33.96C117.373 32.28 116.866 30.3733 116.866 28.24C116.866 26.08 117.359 24.1733 118.346 22.52C119.359 20.84 120.733 19.5333 122.466 18.6C124.199 17.64 126.159 17.16 128.346 17.16C130.453 17.16 132.346 17.6133 134.026 18.52C135.733 19.4 137.079 20.68 138.066 22.36C139.053 24.0133 139.546 26 139.546 28.32C139.546 28.56 139.533 28.84 139.506 29.16C139.479 29.4533 139.453 29.7333 139.426 30H121.946V26.36H136.146L133.746 27.44C133.746 26.32 133.519 25.3467 133.066 24.52C132.613 23.6933 131.986 23.0533 131.186 22.6C130.386 22.12 129.453 21.88 128.386 21.88C127.319 21.88 126.373 22.12 125.546 22.6C124.746 23.0533 124.119 23.7067 123.666 24.56C123.213 25.3867 122.986 26.3733 122.986 27.52V28.48C122.986 29.6533 123.239 30.6933 123.746 31.6C124.279 32.48 125.013 33.16 125.946 33.64C126.906 34.0933 128.026 34.32 129.306 34.32C130.453 34.32 131.453 34.1467 132.306 33.8C133.186 33.4533 133.986 32.9333 134.706 32.24L138.026 35.84C137.039 36.96 135.799 37.8267 134.306 38.44C132.813 39.0267 131.093 39.32 129.146 39.32ZM143.7 39V17.48H149.66V23.56L148.82 21.8C149.46 20.28 150.487 19.1333 151.9 18.36C153.314 17.56 155.034 17.16 157.06 17.16V22.92C156.794 22.8933 156.554 22.88 156.34 22.88C156.127 22.8533 155.9 22.84 155.66 22.84C153.954 22.84 152.567 23.3333 151.5 24.32C150.46 25.28 149.94 26.7867 149.94 28.84V39H143.7ZM171.014 39.32C168.694 39.32 166.628 38.8533 164.814 37.92C163.001 36.96 161.574 35.64 160.534 33.96C159.521 32.28 159.014 30.3733 159.014 28.24C159.014 26.08 159.521 24.1733 160.534 22.52C161.574 20.84 163.001 19.5333 164.814 18.6C166.628 17.64 168.694 17.16 171.014 17.16C173.281 17.16 175.254 17.64 176.934 18.6C178.614 19.5333 179.854 20.88 180.654 22.64L175.814 25.24C175.254 24.2267 174.548 23.48 173.694 23C172.868 22.52 171.961 22.28 170.974 22.28C169.908 22.28 168.948 22.52 168.094 23C167.241 23.48 166.561 24.16 166.054 25.04C165.574 25.92 165.334 26.9867 165.334 28.24C165.334 29.4933 165.574 30.56 166.054 31.44C166.561 32.32 167.241 33 168.094 33.48C168.948 33.96 169.908 34.2 170.974 34.2C171.961 34.2 172.868 33.9733 173.694 33.52C174.548 33.04 175.254 32.28 175.814 31.24L180.654 33.88C179.854 35.6133 178.614 36.96 176.934 37.92C175.254 38.8533 173.281 39.32 171.014 39.32ZM197.21 17.16C198.917 17.16 200.437 17.5067 201.77 18.2C203.13 18.8667 204.197 19.9067 204.97 21.32C205.743 22.7067 206.13 24.4933 206.13 26.68V39H199.89V27.64C199.89 25.9067 199.503 24.6267 198.73 23.8C197.983 22.9733 196.917 22.56 195.53 22.56C194.543 22.56 193.65 22.7733 192.85 23.2C192.077 23.6 191.463 24.2267 191.01 25.08C190.583 25.9333 190.37 27.0267 190.37 28.36V39H184.13V9.32H190.37V23.44L188.97 21.64C189.743 20.2 190.85 19.0933 192.29 18.32C193.73 17.5467 195.37 17.16 197.21 17.16ZM224.986 39V34.8L224.586 33.88V26.36C224.586 25.0267 224.173 23.9867 223.346 23.24C222.546 22.4933 221.306 22.12 219.626 22.12C218.48 22.12 217.346 22.3067 216.226 22.68C215.133 23.0267 214.2 23.5067 213.426 24.12L211.186 19.76C212.36 18.9333 213.773 18.2933 215.426 17.84C217.08 17.3867 218.76 17.16 220.466 17.16C223.746 17.16 226.293 17.9333 228.106 19.48C229.92 21.0267 230.826 23.44 230.826 26.72V39H224.986ZM218.426 39.32C216.746 39.32 215.306 39.04 214.106 38.48C212.906 37.8933 211.986 37.1067 211.346 36.12C210.706 35.1333 210.386 34.0267 210.386 32.8C210.386 31.52 210.693 30.4 211.306 29.44C211.946 28.48 212.946 27.7333 214.306 27.2C215.666 26.64 217.44 26.36 219.626 26.36H225.346V30H220.306C218.84 30 217.826 30.24 217.266 30.72C216.733 31.2 216.466 31.8 216.466 32.52C216.466 33.32 216.773 33.96 217.386 34.44C218.026 34.8933 218.893 35.12 219.986 35.12C221.026 35.12 221.96 34.88 222.786 34.4C223.613 33.8933 224.213 33.16 224.586 32.2L225.546 35.08C225.093 36.4667 224.266 37.52 223.066 38.24C221.866 38.96 220.32 39.32 218.426 39.32ZM236.474 39V17.48H242.714V39H236.474ZM239.594 14.48C238.447 14.48 237.514 14.1467 236.794 13.48C236.074 12.8133 235.714 11.9867 235.714 11C235.714 10.0133 236.074 9.18667 236.794 8.52C237.514 7.85333 238.447 7.52 239.594 7.52C240.74 7.52 241.674 7.84 242.394 8.48C243.114 9.09333 243.474 9.89333 243.474 10.88C243.474 11.92 243.114 12.7867 242.394 13.48C241.7 14.1467 240.767 14.48 239.594 14.48ZM261.585 17.16C263.292 17.16 264.812 17.5067 266.145 18.2C267.505 18.8667 268.572 19.9067 269.345 21.32C270.118 22.7067 270.505 24.4933 270.505 26.68V39H264.265V27.64C264.265 25.9067 263.878 24.6267 263.105 23.8C262.358 22.9733 261.292 22.56 259.905 22.56C258.918 22.56 258.025 22.7733 257.225 23.2C256.452 23.6 255.838 24.2267 255.385 25.08C254.958 25.9333 254.745 27.0267 254.745 28.36V39H248.505V17.48H254.465V23.44L253.345 21.64C254.118 20.2 255.225 19.0933 256.665 18.32C258.105 17.5467 259.745 17.16 261.585 17.16ZM276.601 39V11H283.081V33.72H297.121V39H276.601ZM300.302 39V17.48H306.542V39H300.302ZM303.422 14.48C302.275 14.48 301.342 14.1467 300.622 13.48C299.902 12.8133 299.542 11.9867 299.542 11C299.542 10.0133 299.902 9.18667 300.622 8.52C301.342 7.85333 302.275 7.52 303.422 7.52C304.569 7.52 305.502 7.84 306.222 8.48C306.942 9.09333 307.302 9.89333 307.302 10.88C307.302 11.92 306.942 12.7867 306.222 13.48C305.529 14.1467 304.595 14.48 303.422 14.48ZM319.573 39.32C317.733 39.32 315.96 39.1067 314.253 38.68C312.573 38.2267 311.24 37.6667 310.253 37L312.333 32.52C313.32 33.1333 314.48 33.64 315.813 34.04C317.173 34.4133 318.506 34.6 319.813 34.6C321.253 34.6 322.266 34.4267 322.853 34.08C323.466 33.7333 323.773 33.2533 323.773 32.64C323.773 32.1333 323.533 31.76 323.053 31.52C322.6 31.2533 321.986 31.0533 321.213 30.92C320.44 30.7867 319.586 30.6533 318.653 30.52C317.746 30.3867 316.826 30.2133 315.893 30C314.96 29.76 314.106 29.4133 313.333 28.96C312.56 28.5067 311.933 27.8933 311.453 27.12C311 26.3467 310.773 25.3467 310.773 24.12C310.773 22.76 311.16 21.56 311.933 20.52C312.733 19.48 313.88 18.6667 315.373 18.08C316.866 17.4667 318.653 17.16 320.733 17.16C322.2 17.16 323.693 17.32 325.213 17.64C326.733 17.96 328 18.4267 329.013 19.04L326.933 23.48C325.893 22.8667 324.84 22.4533 323.773 22.24C322.733 22 321.72 21.88 320.733 21.88C319.346 21.88 318.333 22.0667 317.693 22.44C317.053 22.8133 316.733 23.2933 316.733 23.88C316.733 24.4133 316.96 24.8133 317.413 25.08C317.893 25.3467 318.52 25.56 319.293 25.72C320.066 25.88 320.906 26.0267 321.813 26.16C322.746 26.2667 323.68 26.44 324.613 26.68C325.546 26.92 326.386 27.2667 327.133 27.72C327.906 28.1467 328.533 28.7467 329.013 29.52C329.493 30.2667 329.733 31.2533 329.733 32.48C329.733 33.8133 329.333 35 328.533 36.04C327.733 37.0533 326.573 37.8533 325.053 38.44C323.56 39.0267 321.733 39.32 319.573 39.32ZM342.383 39.32C339.85 39.32 337.876 38.68 336.463 37.4C335.05 36.0933 334.343 34.16 334.343 31.6V12.72H340.583V31.52C340.583 32.4267 340.823 33.1333 341.303 33.64C341.783 34.12 342.436 34.36 343.263 34.36C344.25 34.36 345.09 34.0933 345.783 33.56L347.463 37.96C346.823 38.4133 346.05 38.76 345.143 39C344.263 39.2133 343.343 39.32 342.383 39.32ZM331.023 22.76V17.96H345.943V22.76H331.023Z" fill="#F6F8FF"/>
<g clip-path="url(#clip0_201_14)">
<path d="M31.031 18.021C31.031 16.886 30.859 15.75 30.552 14.615C30.114 13.261 29.114 12.167 27.844 11.688C25.215 10.7712 22.353 10.7712 19.724 11.688C19.0668 11.9156 18.4758 12.3018 18.0034 12.8124C17.5311 13.3229 17.1919 13.9421 17.016 14.615C16.4071 16.8292 16.4071 19.1667 17.016 21.381C17.454 22.735 18.459 23.829 19.724 24.308C21.021 24.787 22.401 25.011 23.787 24.964C25.183 24.964 26.537 24.704 27.844 24.308C28.5021 24.0819 29.0939 23.6962 29.5665 23.1854C30.0391 22.6746 30.3777 22.0547 30.552 21.381C30.8648 20.2885 31.026 19.1573 31.031 18.021ZM26.625 18.021C26.625 18.542 26.536 19.156 26.359 19.636C26.2417 19.9907 26.0355 20.3095 25.7602 20.5621C25.4849 20.8147 25.1495 20.9926 24.786 21.079C24.094 21.2083 23.384 21.2083 22.692 21.079C22.3189 21.015 21.9721 20.8449 21.6931 20.589C21.4141 20.3331 21.2148 20.0022 21.119 19.636C20.7708 18.5574 20.7708 17.3966 21.119 16.318C21.2363 15.9632 21.4424 15.6444 21.7178 15.3918C21.9931 15.1393 22.3285 14.9613 22.692 14.875C23.384 14.7457 24.094 14.7457 24.786 14.875C25.552 15.005 26.166 15.568 26.359 16.318C26.5363 16.9273 26.625 17.495 26.625 18.021ZM14.964 36.406C15.5718 34.1899 15.5718 31.8511 14.964 29.635C14.526 28.281 13.521 27.192 12.256 26.708C9.62695 25.7912 6.76502 25.7912 4.13598 26.708C3.47831 26.9348 2.88692 27.3208 2.41446 27.8314C1.942 28.3421 1.60312 28.9617 1.42798 29.635C0.81323 31.8501 0.81323 34.1908 1.42798 36.406C1.86598 37.76 2.86598 38.854 4.13598 39.328C6.76599 40.25 9.62598 40.25 12.256 39.328C12.9014 39.0815 13.4813 38.6897 13.951 38.183C14.4206 37.6763 14.7672 37.0682 14.964 36.406ZM11.031 33.042C11.031 33.568 10.942 34.177 10.771 34.657C10.6537 35.0117 10.4475 35.3305 10.1722 35.5831C9.89687 35.8357 9.5615 36.0136 9.19798 36.1C8.50498 36.23 7.79198 36.23 7.09898 36.1C6.72629 36.0363 6.37996 35.8662 6.10175 35.6102C5.82354 35.3541 5.62532 35.0231 5.53098 34.657C5.18278 33.5784 5.18278 32.4176 5.53098 31.339C5.64689 30.9848 5.85203 30.6665 6.12666 30.4146C6.40129 30.1628 6.73615 29.9859 7.09898 29.901C7.79216 29.7662 8.50481 29.7662 9.19798 29.901C9.95798 30.031 10.573 30.594 10.771 31.339C10.9405 31.8909 11.0281 32.4646 11.031 33.042ZM11.031 17.974H15.442C15.442 16.844 15.265 15.703 14.963 14.615C14.525 13.261 13.52 12.172 12.255 11.688C9.62595 10.7712 6.76402 10.7712 4.13498 11.688C2.78098 12.214 1.77598 13.303 1.42098 14.657C0.813204 16.8731 0.813204 19.2119 1.42098 21.428C1.85898 22.782 2.86398 23.871 4.12898 24.355C5.44198 24.834 6.79599 25.011 8.19199 25.011C9.58799 25.011 10.942 24.745 12.255 24.355C12.9113 24.1258 13.5014 23.7391 13.9736 23.2288C14.4457 22.7185 14.7854 22.1001 14.963 21.428C15.005 21.251 15.046 21.032 15.135 20.86L10.989 18.938C10.942 19.198 10.9 19.417 10.812 19.683C10.6948 20.0373 10.4886 20.3555 10.2132 20.6073C9.93777 20.8591 9.60233 21.036 9.23899 21.121C8.54697 21.2503 7.837 21.2503 7.14498 21.121C6.77249 21.0574 6.42614 20.888 6.14724 20.6331C5.86833 20.3781 5.66865 20.0483 5.57198 19.683C5.2227 18.6028 5.2227 17.4401 5.57198 16.36C5.68931 16.0052 5.89544 15.6864 6.17077 15.4338C6.4461 15.1813 6.78147 15.0033 7.14498 14.917C7.837 14.7877 8.54697 14.7877 9.23899 14.917C10.005 15.047 10.619 15.615 10.812 16.36C10.942 16.928 11.031 17.453 11.031 17.974ZM16.927 29.682C16.6099 30.7895 16.4487 31.9359 16.448 33.088V42.999H20.859V33.041C20.859 32.52 20.942 31.906 21.119 31.426C21.2363 31.0712 21.4424 30.7524 21.7178 30.4998C21.9931 30.2473 22.3285 30.0693 22.692 29.983C23.384 29.8537 24.094 29.8537 24.786 29.983C25.546 30.113 26.161 30.676 26.359 31.426C26.7072 32.5046 26.7072 33.6654 26.359 34.744C26.2443 35.0922 26.0447 35.4064 25.7784 35.6583C25.512 35.9102 25.1871 36.0919 24.833 36.187C24.14 36.317 23.427 36.317 22.734 36.187C22.604 36.145 22.432 36.098 22.302 36.052L23.786 40.161C25.182 40.161 26.536 39.895 27.843 39.505C28.5002 39.2773 29.0912 38.8911 29.5635 38.3806C30.0359 37.87 30.375 37.2509 30.551 36.578C31.1598 34.3637 31.1598 32.0262 30.551 29.812C30.113 28.458 29.113 27.364 27.843 26.885C25.214 25.9682 22.352 25.9682 19.723 26.885C18.369 27.234 17.365 28.328 16.927 29.682Z" fill="white"/>
</g>
<defs>
<clipPath id="clip0_201_14">
<rect width="32" height="32" fill="white" transform="translate(0 11)"/>
</clipPath>
</defs>
</svg>
